<svg xmlns="http://www.w3.org/2000/svg" viewBox="0 0 64 64">
  <defs>
    <linearGradient id="bg" x1="8" y1="6" x2="58" y2="60" gradientUnits="userSpaceOnUse">
      <stop stop-color="#190305"/>
      <stop offset=".52" stop-color="#7f0710"/>
      <stop offset="1" stop-color="#e50914"/>
    </linearGradient>
    <linearGradient id="shine" x1="15" y1="10" x2="47" y2="54" gradientUnits="userSpaceOnUse">
      <stop stop-color="#fff7d6"/>
      <stop offset=".45" stop-color="#ffffff"/>
      <stop offset="1" stop-color="#ffd0d4"/>
    </linearGradient>
    <filter id="shadow" x="-20%" y="-20%" width="140%" height="140%">
      <feDropShadow dx="0" dy="4" stdDeviation="3" flood-color="#320006" flood-opacity=".42"/>
    </filter>
  </defs>
  <rect width="64" height="64" rx="15" fill="url(#bg)"/>
  <path d="M12 18.5C12 14.9 14.9 12 18.5 12h27C49.1 12 52 14.9 52 18.5v27C52 49.1 49.1 52 45.5 52h-27C14.9 52 12 49.1 12 45.5v-27Z" fill="none" stroke="rgba(255,255,255,.24)" stroke-width="2"/>
  <path filter="url(#shadow)" fill="url(#shine)" d="M18.2 23.4h7.2l6.2 12.8 6.4-12.8h7.8v24.1h-6.1V33.2L34 44.3h-4.7l-5.5-11v14.2h-5.6V23.4Z"/>
  <path fill="#fff" d="M22 17.2h20.2c1.6 0 2.8 1.2 2.8 2.8v1.2H19.2V20c0-1.6 1.2-2.8 2.8-2.8Z"/>
  <path fill="#e50914" d="M27.2 14.3h9.6c2.6 0 4.8 2.1 4.8 4.8v2.1h-4.7V19c0-.3-.2-.6-.6-.6h-8.6c-.3 0-.6.2-.6.6v2.2h-4.7V19c0-2.6 2.1-4.7 4.8-4.7Z"/>
  <circle cx="47.7" cy="17.8" r="4.3" fill="#ffd23f"/>
  <path d="m45.9 17.8 1.2 1.2 2.5-2.7" fill="none" stroke="#8f0610" stroke-width="1.7" stroke-linecap="round" stroke-linejoin="round"/>
</svg>
