<svg xmlns="http://www.w3.org/2000/svg" viewBox="0 0 600 360" role="img" aria-label="Dragon game account">
  <defs><linearGradient id="b" x1="0" y1="0" x2="1" y2="1"><stop stop-color="#120005"/><stop offset=".42" stop-color="#8b0000"/><stop offset="1" stop-color="#051915"/></linearGradient><filter id="glow"><feGaussianBlur stdDeviation="7" result="b"/><feMerge><feMergeNode in="b"/><feMergeNode in="SourceGraphic"/></feMerge></filter></defs>
  <rect width="600" height="360" fill="url(#b)"/>
  <circle cx="470" cy="84" r="118" fill="#ffd15a" opacity=".24"/>
  <path d="M28 250c90-84 172-114 260-76 76 32 126 18 178-36 36-38 68-46 104-26-28 4-43 20-56 42-50 84-142 128-236 84-76-36-148-6-250 54z" fill="#071410" opacity=".62"/>
  <g transform="translate(96 76)" filter="url(#glow)">
    <path d="M28 140c80-122 196-148 322-80-90-8-134 20-172 78-35 54-82 76-150 2z" fill="#f6c74e" opacity=".85"/>
    <path d="M172 62c42-54 104-62 164-30-48 10-76 32-94 70z" fill="#b00000"/>
    <path d="M318 38l48-32-16 54zM344 54l60-6-44 40z" fill="#f6c74e"/>
    <circle cx="326" cy="74" r="8" fill="#fff7b5"/>
  </g>
  <text x="30" y="54" fill="#ffd15a" font-size="30" font-family="Arial Black, Arial">GIANG HO</text>
  <text x="30" y="84" fill="#fff" fill-opacity=".78" font-size="18" font-family="Arial">Ky ngo - server hot</text>
</svg>
