<svg xmlns="http://www.w3.org/2000/svg" viewBox="0 0 1400 520" role="img" aria-label="Wuxia game hero banner">
  <defs>
    <linearGradient id="bg" x1="0" y1="0" x2="1" y2="1">
      <stop offset="0" stop-color="#160000"/>
      <stop offset=".42" stop-color="#7a0000"/>
      <stop offset="1" stop-color="#14020a"/>
    </linearGradient>
    <radialGradient id="sun" cx=".72" cy=".22" r=".45">
      <stop offset="0" stop-color="#ffd15a" stop-opacity=".8"/>
      <stop offset=".35" stop-color="#e61515" stop-opacity=".35"/>
      <stop offset="1" stop-color="#000" stop-opacity="0"/>
    </radialGradient>
    <pattern id="grid" width="72" height="72" patternUnits="userSpaceOnUse">
      <path d="M36 0v72M0 36h72" stroke="#ffcf66" stroke-opacity=".08" stroke-width="2"/>
      <circle cx="36" cy="36" r="3" fill="#ffcf66" fill-opacity=".12"/>
    </pattern>
    <filter id="glow" x="-40%" y="-40%" width="180%" height="180%">
      <feGaussianBlur stdDeviation="8" result="b"/>
      <feMerge><feMergeNode in="b"/><feMergeNode in="SourceGraphic"/></feMerge>
    </filter>
  </defs>
  <rect width="1400" height="520" fill="url(#bg)"/>
  <rect width="1400" height="520" fill="url(#grid)"/>
  <rect width="1400" height="520" fill="url(#sun)"/>
  <path d="M0 392c130-70 270-62 406-16 178 60 330 64 510-26 164-82 308-76 484-14v184H0z" fill="#080303" opacity=".72"/>
  <path d="M780 182c94 10 154 50 199 120 50 78 144 86 220 34-56 86-173 142-288 96-98-40-151-129-131-250z" fill="#ffcf66" opacity=".15"/>
  <path d="M840 202c96-52 210-12 268 74-82-20-128-10-183 32-54 41-116 38-164 2 50-4 82-35 79-108z" fill="#ff2b2b" opacity=".22"/>
  <g transform="translate(1035 76)" opacity=".84" filter="url(#glow)">
    <path d="M86 22c68 10 134 62 149 122-35-18-74-19-113-1-36 17-83 21-127-5 54-4 76-40 91-116z" fill="#f8c84f"/>
    <path d="M38 112c51-68 111-94 178-75-52 20-76 61-88 109-30 8-59-2-90-34z" fill="#b90000"/>
    <circle cx="146" cy="112" r="8" fill="#fff2a6"/>
  </g>
  <g transform="translate(930 306)" opacity=".55">
    <path d="M0 130h350L286 60l-44 34-74-84-58 82-42-36z" fill="#050101"/>
    <path d="M110 92h132v38H110z" fill="#360202"/>
    <path d="M136 62h78l28 30H108z" fill="#8b0000"/>
  </g>
  <g transform="translate(690 145)" filter="url(#glow)">
    <path d="M62 248c-10-58-4-114 13-166l48-16 45 18c19 52 24 105 15 164z" fill="#140303"/>
    <path d="M118 70l-42 13 42-70 42 70z" fill="#2a0505"/>
    <path d="M120 86l-14 72 32 90h-62l30-88z" fill="#e61515" opacity=".65"/>
    <path d="M13 232L205 34l16 16L29 248z" fill="#f4d170"/>
    <path d="M20 34l196 198-18 18L4 52z" fill="#f4d170"/>
    <circle cx="118" cy="76" r="18" fill="#ffc94a"/>
  </g>
  <g opacity=".34">
    <text x="880" y="455" fill="#ffd15a" font-size="42" font-family="Arial Black, Arial">VPLAY MARTIAL WORLD</text>
    <text x="884" y="488" fill="#fff" fill-opacity=".52" font-size="18" font-family="Arial">Auto delivery - VIP accounts - Random bags</text>
  </g>
</svg>
