<svg xmlns="http://www.w3.org/2000/svg" viewBox="0 0 600 360" role="img" aria-label="Starter account">
  <defs><linearGradient id="b" x1="0" y1="0" x2="1" y2="1"><stop stop-color="#180003"/><stop offset=".5" stop-color="#760000"/><stop offset="1" stop-color="#2a1400"/></linearGradient><filter id="glow"><feGaussianBlur stdDeviation="6" result="b"/><feMerge><feMergeNode in="b"/><feMergeNode in="SourceGraphic"/></feMerge></filter></defs>
  <rect width="600" height="360" fill="url(#b)"/>
  <path d="M0 290c92-58 170-58 250-20 98 48 212 46 350-18v108H0z" fill="#060101" opacity=".5"/>
  <g transform="translate(220 70)" filter="url(#glow)">
    <path d="M80 0l25 68 72 4-56 44 18 70-59-39-60 39 18-70-56-44 72-4z" fill="#ffd15a"/>
    <path d="M80 38l12 34 36 2-28 22 9 35-29-20-30 20 9-35-28-22 36-2z" fill="#fff7b5"/>
  </g>
  <g transform="translate(310 150)" opacity=".45">
    <path d="M12 128L148 0l12 12L24 140zM16 0l132 132-12 14L2 12z" fill="#ffdf7d"/>
  </g>
  <text x="30" y="54" fill="#ffd15a" font-size="30" font-family="Arial Black, Arial">REG</text>
  <text x="30" y="84" fill="#fff" fill-opacity=".78" font-size="18" font-family="Arial">Acc moi trang</text>
</svg>
