<svg xmlns="http://www.w3.org/2000/svg" viewBox="0 0 600 360" role="img" aria-label="VIP wuxia account">
  <defs>
    <linearGradient id="b" x1="0" y1="0" x2="1" y2="1"><stop stop-color="#210000"/><stop offset=".55" stop-color="#8b0000"/><stop offset="1" stop-color="#17000a"/></linearGradient>
    <radialGradient id="g" cx=".72" cy=".22" r=".58"><stop stop-color="#ffd45f" stop-opacity=".75"/><stop offset=".42" stop-color="#ff2b2b" stop-opacity=".2"/><stop offset="1" stop-opacity="0"/></radialGradient>
    <pattern id="p" width="42" height="42" patternUnits="userSpaceOnUse"><path d="M21 4v34M4 21h34" stroke="#ffc94a" stroke-opacity=".1" stroke-width="2"/></pattern>
  </defs>
  <rect width="600" height="360" fill="url(#b)"/><rect width="600" height="360" fill="url(#p)"/><rect width="600" height="360" fill="url(#g)"/>
  <path d="M0 272c105-44 178-30 258 3 116 48 216 42 342-20v105H0z" fill="#080101" opacity=".55"/>
  <path d="M420 44c58 14 92 52 104 104-34-18-66-16-98 6-34 23-75 20-112-8 47-1 80-35 106-102z" fill="#ffd15a" opacity=".28"/>
  <g transform="translate(248 78)">
    <path d="M52 202c-12-56-5-106 14-152h70c18 48 25 98 14 152z" fill="#130202"/>
    <path d="M100 0l-52 55h104z" fill="#2d0303"/>
    <circle cx="100" cy="62" r="20" fill="#ffd15a"/>
    <path d="M14 210L188 24l16 15L30 226zM18 24l174 186-16 16L2 40z" fill="#f7d47a"/>
    <path d="M84 91h32l24 111H60z" fill="#e61515" opacity=".72"/>
  </g>
  <text x="28" y="58" fill="#ffd15a" font-size="34" font-family="Arial Black, Arial">VIP</text>
  <text x="28" y="92" fill="#fff" fill-opacity=".78" font-size="20" font-family="Arial">Chien luc cao</text>
</svg>
